<svg id="visual" viewBox="0 0 900 600" width="900" height="600" xmlns="http://www.w3.org/2000/svg" xmlns:xlink="http://www.w3.org/1999/xlink" version="1.1"><rect x="0" y="0" width="900" height="600" fill="#ffffff"></rect><defs><linearGradient id="grad1_0" x1="33.3%" y1="0%" x2="100%" y2="100%"><stop offset="20%" stop-color="#ffffff" stop-opacity="1"></stop><stop offset="80%" stop-color="#ffffff" stop-opacity="1"></stop></linearGradient></defs><defs><linearGradient id="grad2_0" x1="0%" y1="0%" x2="66.7%" y2="100%"><stop offset="20%" stop-color="#ffffff" stop-opacity="1"></stop><stop offset="80%" stop-color="#ffffff" stop-opacity="1"></stop></linearGradient></defs><g transform="translate(900, 0)"><path d="M0 324.5C-32.7 290.8 -65.4 257.1 -99.1 239.3C-132.9 221.5 -167.7 219.6 -204.4 204.4C-241 189.1 -279.5 160.5 -299.8 124.2C-320.1 87.9 -322.3 43.9 -324.5 0L0 0Z" fill="#c6c6c6"></path></g><g transform="translate(0, 600)"><path d="M0 -324.5C42.6 -320.7 85.2 -316.9 124.2 -299.8C163.2 -282.7 198.6 -252.4 217.1 -217.1C235.6 -181.8 237.1 -141.5 252.2 -104.5C267.3 -67.5 295.9 -33.7 324.5 0L0 0Z" fill="#c6c6c6"></path></g></svg>