<svg id="visual" viewBox="0 0 900 600" width="900" height="600" xmlns="http://www.w3.org/2000/svg" xmlns:xlink="http://www.w3.org/1999/xlink" version="1.1"><path d="M0 501L37.5 495.5C75 490 150 479 225 480.3C300 481.7 375 495.3 450 499C525 502.7 600 496.3 675 490.3C750 484.3 825 478.7 862.5 475.8L900 473L900 601L862.5 601C825 601 750 601 675 601C600 601 525 601 450 601C375 601 300 601 225 601C150 601 75 601 37.5 601L0 601Z" fill="#a7a9ae"></path><path d="M0 541L37.5 541.8C75 542.7 150 544.3 225 540.2C300 536 375 526 450 522C525 518 600 520 675 523.2C750 526.3 825 530.7 862.5 532.8L900 535L900 601L862.5 601C825 601 750 601 675 601C600 601 525 601 450 601C375 601 300 601 225 601C150 601 75 601 37.5 601L0 601Z" fill="#ffffff"></path></svg>