<svg id="visual" viewBox="0 0 900 600" width="900" height="600" xmlns="http://www.w3.org/2000/svg" xmlns:xlink="http://www.w3.org/1999/xlink" version="1.1"><path d="M0 88L21.5 88.8C43 89.7 86 91.3 128.8 83.3C171.7 75.3 214.3 57.7 257.2 60C300 62.3 343 84.7 385.8 92.8C428.7 101 471.3 95 514.2 92.2C557 89.3 600 89.7 642.8 93.5C685.7 97.3 728.3 104.7 771.2 102.5C814 100.3 857 88.7 878.5 82.8L900 77L900 0L878.5 0C857 0 814 0 771.2 0C728.3 0 685.7 0 642.8 0C600 0 557 0 514.2 0C471.3 0 428.7 0 385.8 0C343 0 300 0 257.2 0C214.3 0 171.7 0 128.8 0C86 0 43 0 21.5 0L0 0Z" fill="#bcbcbc"></path><path d="M0 9L21.5 16C43 23 86 37 128.8 42.2C171.7 47.3 214.3 43.7 257.2 41C300 38.3 343 36.7 385.8 32.3C428.7 28 471.3 21 514.2 27.7C557 34.3 600 54.7 642.8 59.8C685.7 65 728.3 55 771.2 49C814 43 857 41 878.5 40L900 39L900 0L878.5 0C857 0 814 0 771.2 0C728.3 0 685.7 0 642.8 0C600 0 557 0 514.2 0C471.3 0 428.7 0 385.8 0C343 0 300 0 257.2 0C214.3 0 171.7 0 128.8 0C86 0 43 0 21.5 0L0 0Z" fill="#d3d7d0"></path></svg>