<svg id="visual" viewBox="0 0 900 600" width="900" height="600" xmlns="http://www.w3.org/2000/svg" xmlns:xlink="http://www.w3.org/1999/xlink" version="1.1"><path d="M0 97L37.5 102.5C75 108 150 119 225 117.7C300 116.3 375 102.7 450 99C525 95.3 600 101.7 675 107.7C750 113.7 825 119.3 862.5 122.2L900 125L900 0L862.5 0C825 0 750 0 675 0C600 0 525 0 450 0C375 0 300 0 225 0C150 0 75 0 37.5 0L0 0Z" fill="#a7a9ae"></path><path d="M0 57L37.5 56.2C75 55.3 150 53.7 225 57.8C300 62 375 72 450 76C525 80 600 78 675 74.8C750 71.7 825 67.3 862.5 65.2L900 63L900 0L862.5 0C825 0 750 0 675 0C600 0 525 0 450 0C375 0 300 0 225 0C150 0 75 0 37.5 0L0 0Z" fill="#c6c6c6"></path></svg>