<svg id="visual" viewBox="0 0 900 600" width="900" height="600" xmlns="http://www.w3.org/2000/svg" xmlns:xlink="http://www.w3.org/1999/xlink" version="1.1"><path d="M0 510L21.5 509.2C43 508.3 86 506.7 128.8 514.7C171.7 522.7 214.3 540.3 257.2 538C300 535.7 343 513.3 385.8 505.2C428.7 497 471.3 503 514.2 505.8C557 508.7 600 508.3 642.8 504.5C685.7 500.7 728.3 493.3 771.2 495.5C814 497.7 857 509.3 878.5 515.2L900 521L900 601L878.5 601C857 601 814 601 771.2 601C728.3 601 685.7 601 642.8 601C600 601 557 601 514.2 601C471.3 601 428.7 601 385.8 601C343 601 300 601 257.2 601C214.3 601 171.7 601 128.8 601C86 601 43 601 21.5 601L0 601Z" fill="#c9c9c9"></path><path d="M0 589L21.5 582C43 575 86 561 128.8 555.8C171.7 550.7 214.3 554.3 257.2 557C300 559.7 343 561.3 385.8 565.7C428.7 570 471.3 577 514.2 570.3C557 563.7 600 543.3 642.8 538.2C685.7 533 728.3 543 771.2 549C814 555 857 557 878.5 558L900 559L900 601L878.5 601C857 601 814 601 771.2 601C728.3 601 685.7 601 642.8 601C600 601 557 601 514.2 601C471.3 601 428.7 601 385.8 601C343 601 300 601 257.2 601C214.3 601 171.7 601 128.8 601C86 601 43 601 21.5 601L0 601Z" fill="#ffffff"></path></svg>