<svg id="visual" viewBox="0 0 900 600" width="900" height="600" xmlns="http://www.w3.org/2000/svg" xmlns:xlink="http://www.w3.org/1999/xlink" version="1.1"><g fill="none" stroke="#297EA6" stroke-width="4"><path d="M0 -111.4L25 -34.4L105.9 -34.4L40.5 13.1L65.5 90.1L0 42.5L-65.5 90.1L-40.5 13.1L-105.9 -34.4L-25 -34.4Z" transform="translate(211 20)"></path><path d="M0 -49.1L11 -15.2L46.7 -15.2L17.8 5.8L28.8 39.7L0 18.7L-28.8 39.7L-17.8 5.8L-46.7 -15.2L-11 -15.2Z" transform="translate(512 180)"></path><path d="M0 -69.8L15.7 -21.6L66.4 -21.6L25.4 8.2L41.1 56.5L0 26.7L-41.1 56.5L-25.4 8.2L-66.4 -21.6L-15.7 -21.6Z" transform="translate(866 72)"></path><path d="M0 -99.1L22.2 -30.6L94.3 -30.6L36 11.7L58.3 80.2L0 37.9L-58.3 80.2L-36 11.7L-94.3 -30.6L-22.2 -30.6Z" transform="translate(132 513)"></path></g></svg>