<svg id="visual" viewBox="0 0 900 600" width="900" height="600" xmlns="http://www.w3.org/2000/svg" xmlns:xlink="http://www.w3.org/1999/xlink" version="1.1"><rect x="0" y="0" width="900" height="600" fill="#ffffff"></rect><path d="M0 384L21.5 395.7C43 407.3 86 430.7 128.8 439.5C171.7 448.3 214.3 442.7 257.2 427.2C300 411.7 343 386.3 385.8 374.2C428.7 362 471.3 363 514.2 358.8C557 354.7 600 345.3 642.8 352.5C685.7 359.7 728.3 383.3 771.2 396C814 408.7 857 410.3 878.5 411.2L900 412L900 601L878.5 601C857 601 814 601 771.2 601C728.3 601 685.7 601 642.8 601C600 601 557 601 514.2 601C471.3 601 428.7 601 385.8 601C343 601 300 601 257.2 601C214.3 601 171.7 601 128.8 601C86 601 43 601 21.5 601L0 601Z" fill="#e8e8e8" stroke-linecap="round" stroke-linejoin="miter"></path></svg>